# xmcd CD database file
#
# Track frame offsets:
#	150
#	13900
#	28465
#	46085
#	61395
#	72995
#	90187
#	108992
#	122140
#	137410
#
# Disc length: 2043 seconds
#
# Revision: 1
# Processed by: cddbd v1.5.2PL0 Copyright (c) Steve Scherf et al.
# Submitted via: CDex 1.70beta2
#
DISCID=8307f90a
DTITLE=DERYL DODD - ONE RIDE IN VEGAS
DYEAR=1996
DGENRE=Country
TTITLE0=Friends Don't Drive Friends...
TTITLE1=That's How I Got To Memphis
TTITLE2=Movin' Out To The Country
TTITLE3=Stayin' Is the Only Way To Go
TTITLE4=Somethin' Like That
TTITLE5=That Ol' World (Keeps Turning On Me)
TTITLE6=One Ride In Vegas
TTITLE7=13 MWZ
TTITLE8=I Can Love You
TTITLE9=That's Just Me
EXTD=YEAR: 1996
EXTT0=
EXTT1=
EXTT2=
EXTT3=
EXTT4=
EXTT5=
EXTT6=
EXTT7=
EXTT8=
EXTT9=
PLAYORDER=
